# xmcd
#
# Track frame offsets: 
#        150
#        16899
#        34229
#        51060
#        71034
#        84214
#        100017
#        113362
#        130746
#        147855
#        170858
#        184399
#        202829
#        222617
#        242240
#
# Disc length: 3444 seconds
#
# Revision: 0
# Processed by: cddbd v1.5.2PL0 Copyright (c) Steve Scherf et al.
# Submitted via: ExactAudioCopy v0.95b4
#
DISCID=d10d720f
DTITLE=Various Artist - Friends For Life: Voices For Hospice [The Bluebird Ca
DTITLE=fe, Nashville fundraising CD]
DYEAR=1996
DGENRE=Americana
TTITLE0=Delbert McClinton - Somebody To Love You
TTITLE1=Marc Beeson - From the Cradle To The Grave
TTITLE2=Michael McDonald - Minute By Minute
TTITLE3=Gary Burr - Silence Is King
TTITLE4=Matraca Berg - Wrong Side of Memphis
TTITLE5=Hal Ketchum - I Miss My Mary Tonight
TTITLE6=Jon Ims - That's Why She's My Girl
TTITLE7=Mac McAnally - Only Passing Through
TTITLE8=John Hartford - Old Time River Man
TTITLE9=Don Henry - Beautiful Fool
TTITLE10=Bob Regan - Leo's Guitar
TTITLE11=Shawn Camp - Granpa That I Knew
TTITLE12=Jill Colucci - Save Me A Place In Your Heart
TTITLE13=Gary Nicholson - Motel Motel Motel
TTITLE14=Kate Wallace - Going Through The Emotions
EXTD=
EXTT0=
EXTT1=
EXTT2=
EXTT3=
EXTT4=
EXTT5=
EXTT6=
EXTT7=
EXTT8=
EXTT9=
EXTT10=
EXTT11=
EXTT12=
EXTT13=
EXTT14=
PLAYORDER=
